<svg width="680" height="747" viewBox="0 0 680 747" fill="none" xmlns="http://www.w3.org/2000/svg">
<path d="M0.761973 372.169C0.761973 322.995 1.18607 273.81 0.608826 224.637C0.255409 194.292 13.9208 173.079 40.2857 158.231C126.708 109.567 213.059 60.7634 299.246 11.694C326.294 -3.7096 352.541 -3.98735 379.695 11.4047C466.529 60.6361 553.541 109.555 640.552 158.485C666.245 172.94 679.38 194.003 679.333 223.444C679.192 323.099 679.427 422.742 679.722 522.397C679.804 551.642 666.964 572.994 641.152 587.541C553.647 636.854 466.211 686.282 378.859 735.837C352.47 750.813 326.659 750.662 300.294 735.664C213.566 686.305 126.778 637.039 39.8145 588.097C12.5425 572.751 -0.36896 550.554 0.00801774 519.701C0.632387 470.527 0.172945 421.342 0.172945 372.169H0.750192H0.761973ZM484.801 199.905C474.234 199.905 463.631 200.484 453.111 199.778C436.147 198.632 428.843 206.455 428.514 222.449C428.219 236.013 427.583 249.576 426.676 263.117C420.821 350.134 415.001 437.151 408.781 524.145C407.662 539.838 414.907 544.895 429.692 544.571C450.814 544.108 471.996 543.61 493.071 544.698C510.388 545.589 518.034 539.768 519.118 522.154C524.666 431.874 531.817 341.697 536.871 251.393C539.746 200.021 538.414 199.951 484.813 199.905H484.801ZM331.96 544.467C343.835 544.467 355.722 544.062 367.573 544.571C380.626 545.138 387.14 539.815 387.847 526.83C388.978 506.218 390.828 485.642 392.171 465.03C395.658 411.575 398.98 358.107 402.502 304.664C403.221 293.716 401.536 285.071 387.505 285.105C361.117 285.163 334.693 284.341 308.387 285.765C303.11 286.054 294.298 294.468 293.886 299.652C287.889 375.56 283.036 451.559 277.935 527.547C277.169 538.947 283.024 544.328 294.357 544.397C306.891 544.478 319.426 544.421 331.96 544.478V544.467ZM201.821 544.536C213.036 544.536 224.286 544.05 235.478 544.664C249.131 545.416 256.706 540.382 257.554 526.402C260.794 472.911 264.14 419.421 267.674 365.942C268.522 353.154 261.607 348.224 249.944 348.108C225.523 347.865 201.102 347.796 176.693 348.085C165.101 348.224 158.763 353.791 158.091 365.989C155.759 408.531 152.342 451.027 150.351 493.592C147.96 544.698 148.419 544.721 201.832 544.548L201.821 544.536Z" fill="#273480"/>
</svg>
