<svg width="1890" height="747" viewBox="0 0 1890 747" fill="none" xmlns="http://www.w3.org/2000/svg">
<g clip-path="url(#clip0_1357_446)">
<path d="M0.753184 372.163C0.753184 322.989 1.17728 273.804 0.600036 224.63C0.24662 194.286 13.9121 173.073 40.2769 158.225C126.699 109.56 213.05 60.7573 299.237 11.6879C326.285 -3.71571 352.532 -3.99346 379.686 11.3986C466.521 60.63 553.532 109.549 640.543 158.479C666.236 172.934 679.372 193.997 679.324 223.438C679.183 323.093 679.419 422.736 679.713 522.391C679.796 551.636 666.955 572.988 641.144 587.535C553.638 636.848 466.203 686.276 378.85 735.831C352.461 750.807 326.65 750.656 300.285 735.658C213.557 686.299 126.77 637.033 39.8057 588.091C12.5337 572.745 -0.377749 550.548 -0.000771323 519.695C0.623598 470.521 0.164156 421.336 0.164156 372.163H0.741403H0.753184ZM484.792 199.899C474.225 199.899 463.623 200.478 453.103 199.772C436.139 198.626 428.835 206.449 428.505 222.443C428.21 236.007 427.574 249.57 426.667 263.111C420.812 350.128 414.993 437.145 408.772 524.139C407.653 539.832 414.898 544.889 429.683 544.565C450.805 544.102 471.987 543.604 493.062 544.692C510.38 545.583 518.025 539.762 519.109 522.148C524.658 431.867 531.808 341.691 536.862 251.387C539.737 200.015 538.406 199.945 484.804 199.899H484.792ZM331.951 544.461C343.826 544.461 355.713 544.056 367.564 544.565C380.617 545.132 387.132 539.808 387.838 526.824C388.969 506.212 390.819 485.635 392.162 465.024C395.649 411.568 398.971 358.101 402.493 304.657C403.212 293.709 401.527 285.064 387.497 285.099C361.108 285.157 334.685 284.335 308.379 285.759C303.101 286.048 294.289 294.462 293.877 299.646C287.88 375.553 283.027 451.553 277.926 527.541C277.16 538.94 283.015 544.322 294.348 544.391C306.882 544.472 319.417 544.415 331.951 544.472V544.461ZM201.812 544.53C213.027 544.53 224.277 544.044 235.469 544.658C249.122 545.41 256.697 540.376 257.546 526.395C260.785 472.905 264.131 419.415 267.665 365.936C268.513 353.148 261.598 348.218 249.935 348.102C225.514 347.859 201.093 347.79 176.684 348.079C165.092 348.218 158.754 353.785 158.082 365.983C155.75 408.525 152.333 451.021 150.343 493.586C147.951 544.692 148.411 544.715 201.824 544.542L201.812 544.53Z" fill="#273480"/>
<path d="M958.537 308.269L905.595 227.212H864.187V308.269H838.352V104.238H921.805C959.786 104.238 986.881 128.101 986.881 165.725C986.881 203.349 961.341 222.629 933.009 225.071L989.061 308.269H958.537ZM960.092 165.725C960.092 142.787 943.281 126.886 918.684 126.886H864.187V204.876H918.684C943.281 204.876 960.092 188.663 960.092 165.725Z" fill="#273480"/>
<path d="M1114.56 308.269V291.442C1102.11 304.901 1084.99 311.938 1064.74 311.938C1039.21 311.938 1012.11 295.111 1012.11 262.996C1012.11 230.881 1039.21 214.355 1064.74 214.355C1085.29 214.355 1102.42 220.789 1114.56 234.549V207.932C1114.56 188.049 1098.37 176.731 1076.58 176.731C1058.52 176.731 1043.87 183.154 1030.49 197.215L1019.59 181.314C1035.78 164.799 1055.1 156.837 1079.69 156.837C1111.45 156.837 1137.92 170.91 1137.92 206.705V308.258H1114.56V308.269ZM1114.56 277.068V249.235C1105.53 237.003 1089.64 230.881 1073.15 230.881C1051.34 230.881 1036.09 244.34 1036.09 263.297C1036.09 282.253 1051.34 295.412 1073.15 295.412C1089.65 295.412 1105.53 289.301 1114.56 277.068Z" fill="#273480"/>
<path d="M1286.15 308.269V211.612C1286.15 185.619 1272.76 177.356 1252.52 177.356C1234.15 177.356 1216.72 188.373 1207.99 200.305V308.281H1184.64V160.529H1207.99V181.95C1218.58 169.718 1239.14 156.86 1261.56 156.86C1293 156.86 1309.5 172.46 1309.5 204.575V308.269H1286.14H1286.15Z" fill="#273480"/>
<path d="M1458.68 308.269L1404.5 241.898L1379.58 266.051V308.269H1356.22V104.238H1379.58V239.132L1458.67 160.517H1488.25L1421.61 227.513L1488.55 308.269H1458.67H1458.68Z" fill="#273480"/>
<path d="M1512.26 124.12C1512.26 115.568 1519.42 108.531 1527.83 108.531C1536.24 108.531 1543.71 115.568 1543.71 124.12C1543.71 132.672 1536.55 139.419 1527.83 139.419C1519.11 139.419 1512.26 132.696 1512.26 124.12ZM1516.31 308.269V160.517H1539.66V308.269H1516.31Z" fill="#273480"/>
<path d="M1687.89 308.269V211.612C1687.89 185.619 1674.51 177.356 1654.26 177.356C1635.88 177.356 1618.45 188.373 1609.74 200.305V308.281H1586.38V160.529H1609.74V181.95C1620.32 169.718 1640.87 156.86 1663.28 156.86C1694.74 156.86 1711.24 172.46 1711.24 204.575V308.269H1687.88H1687.89Z" fill="#273480"/>
<path d="M1757.67 346.194L1769.5 329.066C1781.95 343.752 1796.9 349.249 1818.39 349.249C1843.3 349.249 1866.65 337.329 1866.65 304.901V283.792C1855.75 298.779 1837.39 310.098 1816.21 310.098C1776.98 310.098 1749.27 281.35 1749.27 233.635C1749.27 185.92 1776.67 156.86 1816.21 156.86C1836.46 156.86 1854.51 166.651 1866.65 182.853V160.529H1890.01V303.999C1890.01 352.941 1855.14 368.229 1818.39 368.229C1792.86 368.229 1775.42 363.333 1757.67 346.205V346.194ZM1866.65 265.739V201.208C1858.55 188.35 1840.5 177.344 1821.81 177.344C1791.61 177.344 1773.55 200.895 1773.55 233.624C1773.55 266.352 1791.61 289.903 1821.81 289.903C1840.5 289.903 1858.56 278.585 1866.65 265.739Z" fill="#273480"/>
<path d="M838.339 520.668C838.339 449.54 891.281 398.584 963.696 398.584C1036.11 398.584 1089.43 449.54 1089.43 520.668C1089.43 591.795 1036.48 642.751 963.696 642.751C890.916 642.751 838.339 591.795 838.339 520.668ZM1036.82 520.668C1036.82 476.424 1008 443.164 963.684 443.164C919.366 443.164 890.927 476.424 890.927 520.668C890.927 564.911 919.389 598.16 963.684 598.16C1007.98 598.16 1036.82 564.552 1036.82 520.668Z" fill="#273480"/>
<path d="M1241.85 638.515V535.18C1241.85 511.467 1229.24 503.331 1209.79 503.331C1191.78 503.331 1177.74 513.226 1170.17 523.503V638.515H1124.42V467.582H1170.17V489.884C1181.33 476.795 1202.59 463.335 1231.06 463.335C1269.24 463.335 1287.61 484.572 1287.61 517.844V638.515H1241.86H1241.85Z" fill="#273480"/>
<path d="M1333.02 638.515V402.473H1378.77V638.515H1333.02Z" fill="#273480"/>
<path d="M1419.48 422.286C1419.48 407.426 1432.09 395.749 1446.87 395.749C1461.66 395.749 1474.24 407.426 1474.24 422.286C1474.24 437.146 1462 449.181 1446.87 449.181C1431.75 449.181 1419.48 437.157 1419.48 422.286ZM1424.17 638.515V467.582H1469.93V638.515H1424.17Z" fill="#273480"/>
<path d="M1632.76 638.515V535.18C1632.76 511.467 1620.15 503.331 1600.71 503.331C1582.7 503.331 1568.65 513.226 1561.08 523.503V638.515H1515.33V467.582H1561.08V489.884C1572.24 476.795 1593.51 463.335 1621.97 463.335C1660.15 463.335 1678.53 484.572 1678.53 517.844V638.515H1632.77H1632.76Z" fill="#273480"/>
<path d="M1712.76 552.864C1712.76 503.331 1749.87 463.335 1802.81 463.335C1855.75 463.335 1890 501.561 1890 557.47V567.376H1760.67C1763.56 588.96 1781.22 607.014 1810.75 607.014C1825.53 607.014 1846.05 600.637 1857.21 590.024L1877.38 619.038C1860.09 634.604 1832.71 642.751 1805.7 642.751C1752.76 642.751 1712.76 607.708 1712.76 552.864ZM1802.81 499.073C1774.36 499.073 1762.11 519.95 1759.95 536.939H1845.68C1844.61 520.668 1833.08 499.073 1802.81 499.073Z" fill="#273480"/>
</g>
<defs>
<clipPath id="clip0_1357_446">
<rect width="1890" height="747" fill="white"/>
</clipPath>
</defs>
</svg>
